<?xml version="1.0" encoding="UTF-8"?>
<svg width="100" height="100" viewBox="0 0 100 100" xmlns="http://www.w3.org/2000/svg">
  <defs>
    <pattern id="arabic-pattern" x="0" y="0" width="100" height="100" patternUnits="userSpaceOnUse">
      <!-- Main Star Pattern -->
      <path d="M50 0L61 35H100L69 57L80 92L50 70L20 92L31 57L0 35H39L50 0Z" fill="currentColor" fill-opacity="0.2"/>
      <!-- Inner Star -->
      <path d="M50 20L57 40H80L62 52L70 72L50 60L30 72L38 52L20 40H43L50 20Z" fill="currentColor" fill-opacity="0.15"/>
      <!-- Inner Circle -->
      <circle cx="50" cy="50" r="25" fill="none" stroke="currentColor" stroke-width="2" stroke-opacity="0.2"/>
      <circle cx="50" cy="50" r="15" fill="none" stroke="currentColor" stroke-width="1.5" stroke-opacity="0.2"/>
      <!-- Decorative Lines -->
      <path d="M50 0V100M0 50H100" stroke="currentColor" stroke-width="1.5" stroke-opacity="0.15"/>
      <path d="M0 0L100 100M0 100L100 0" stroke="currentColor" stroke-width="1.5" stroke-opacity="0.15"/>
      <!-- Small Decorative Elements -->
      <circle cx="50" cy="50" r="5" fill="currentColor" fill-opacity="0.2"/>
      <circle cx="25" cy="25" r="3" fill="currentColor" fill-opacity="0.2"/>
      <circle cx="75" cy="25" r="3" fill="currentColor" fill-opacity="0.2"/>
      <circle cx="25" cy="75" r="3" fill="currentColor" fill-opacity="0.2"/>
      <circle cx="75" cy="75" r="3" fill="currentColor" fill-opacity="0.2"/>
    </pattern>
  </defs>
  <rect width="100" height="100" fill="url(#arabic-pattern)"/>
</svg> 