<?xml version="1.0" encoding="UTF-8"?>
<svg width="100" height="100" viewBox="0 0 100 100" xmlns="http://www.w3.org/2000/svg">
  <defs>
    <pattern id="saudi-pattern" x="0" y="0" width="100" height="100" patternUnits="userSpaceOnUse">
      <!-- Main Palm Tree Pattern -->
      <path d="M50 0C45 20 30 35 30 50C30 65 45 80 50 100C55 80 70 65 70 50C70 35 55 20 50 0Z" fill="currentColor" fill-opacity="0.2"/>
      <!-- Inner Palm Details -->
      <path d="M50 10C47 25 37 35 37 50C37 65 47 75 50 90C53 75 63 65 63 50C63 35 53 25 50 10Z" fill="currentColor" fill-opacity="0.15"/>
      <!-- Decorative Lines -->
      <path d="M0 25H100M0 75H100" stroke="currentColor" stroke-width="1.5" stroke-opacity="0.15"/>
      <path d="M25 0V100M75 0V100" stroke="currentColor" stroke-width="1.5" stroke-opacity="0.15"/>
      <!-- Decorative Circles -->
      <circle cx="25" cy="25" r="8" fill="currentColor" fill-opacity="0.15"/>
      <circle cx="75" cy="25" r="8" fill="currentColor" fill-opacity="0.15"/>
      <circle cx="25" cy="75" r="8" fill="currentColor" fill-opacity="0.15"/>
      <circle cx="75" cy="75" r="8" fill="currentColor" fill-opacity="0.15"/>
      <!-- Center Circle -->
      <circle cx="50" cy="50" r="10" fill="currentColor" fill-opacity="0.2"/>
      <!-- Small Decorative Elements -->
      <circle cx="50" cy="25" r="3" fill="currentColor" fill-opacity="0.2"/>
      <circle cx="50" cy="75" r="3" fill="currentColor" fill-opacity="0.2"/>
      <circle cx="25" cy="50" r="3" fill="currentColor" fill-opacity="0.2"/>
      <circle cx="75" cy="50" r="3" fill="currentColor" fill-opacity="0.2"/>
    </pattern>
  </defs>
  <rect width="100" height="100" fill="url(#saudi-pattern)"/>
</svg> 